#!OML:ASF X:\für Bonn\!DataBase\2005_08_10_Bjorn_Final\c3d\bjorn.ASF
:FULLY-SPECIFIED
:DEGREES
367
root 0.420814 2.21342 10.3371 -2049.58 -17.2669 179.123
lowerback 43.4722 5.17059 12.1504
upperback 27.8297 -0.890936 2.07851
thorax 11.9929 -4.33941 -4.74371
lowerneck 14.8104 8.78351 7.9627
upperneck 16.1401 11.5051 -6.32189
head 3.38053 5.36 -3.36885
rclavicle 3.65764e-014 7.95139e-016
rhumerus -63.1379 -1.00833 -80.7007
rradius 70.1448
rwrist -70.3504
rhand -25.4066 -34.1171
rfingers 7.12502
rthumb 1.1189 -64.0939
lclavicle 3.65764e-014 7.95139e-016
lhumerus -70.1119 -40.6665 108.342
lradius 69.0584
lwrist 55.6644
lhand -35.3804 35.1728
lfingers 7.12502
lthumb -8.51186 784.981
rfemur -427.551 -32.5699 354.017
rtibia 100.306
rfoot 35.9328 7.20062
rtoes -3.97004
lfemur -74.8452 -3.35395 -25.1154
ltibia 106.454
lfoot 13.9125 5.16536
ltoes -4.1611
368
root 0.41011 2.21346 10.325 -2049.35 -17.2845 179.246
lowerback 43.2017 5.16707 12.0382
upperback 27.833 -0.925559 2.09606
thorax 12.0526 -4.34896 -4.6691
lowerneck 14.8462 8.83177 8.0167
upperneck 16.0524 11.5992 -6.50053
head 3.36749 5.41067 -3.4336
rclavicle 7.46436e-014 -8.34896e-015
rhumerus -63.1338 -0.996286 -80.6469
rradius 70.2617
rwrist -70.3654
rhand -25.7116 -33.9267
rfingers 7.12502
rthumb 0.824301 -63.9049
lclavicle 7.46436e-014 -8.34896e-015
lhumerus -70.2065 -40.419 108.377
lradius 69.2646
lwrist 55.6022
lhand -35.4787 35.0807
lfingers 7.12502
lthumb -8.60678 784.885
rfemur -427.795 -32.4398 354.052
rtibia 100.368
rfoot 36.0767 7.23665
rtoes -4.32403
lfemur -74.6897 -3.28962 -25.2452
ltibia 105.578
lfoot 14.0771 5.28594
ltoes -4.02476
369
root 0.399332 2.2136 10.313 -2049.13 -17.3044 179.381
lowerback 42.9446 5.15751 11.9292
upperback 27.8266 -0.960703 2.11425
thorax 12.0972 -4.35803 -4.59309
lowerneck 14.8901 8.89205 8.0493
upperneck 15.9636 11.7042 -6.65814
head 3.35174 5.46594 -3.48884
rclavicle -1.03865e-013 1.43125e-014
rhumerus -63.1525 -0.968381 -80.5787
rradius 70.3916
rwrist -70.4444
rhand -26.01 -33.7275
rfingers 7.12502
rthumb 0.536072 -63.7065
lclavicle -1.03865e-013 1.43125e-014
lhumerus -70.348 -40.1845 108.436
lradius 69.5043
lwrist 55.5673
lhand -35.5739 35.0502
lfingers 7.12502
lthumb -8.69863 784.851
rfemur -428.042 -32.3557 354.089
rtibia 100.435
rfoot 36.2021 7.29888
rtoes -4.6467
lfemur -74.5355 -3.23222 -25.3818
ltibia 104.71
lfoot 14.2605 5.36392
ltoes -3.73797
370
root 0.388677 2.21434 10.3015 -2048.91 -17.2933 179.526
lowerback 42.7171 5.14438 11.8543
upperback 27.8137 -0.987679 2.13535
thorax 12.1311 -4.36044 -4.53117
lowerneck 14.9452 8.94374 7.99708
upperneck 15.8555 11.7816 -6.76038
head 3.31839 5.50398 -3.51523
rclavicle 3.62782e-014 3.97569e-016
rhumerus -63.1841 -0.94798 -80.5381
rradius 70.5506
rwrist -70.5291
rhand -26.3308 -33.4227
rfingers 7.12502
rthumb 0.226214 -63.4023
lclavicle 3.62782e-014 3.97569e-016
lhumerus -70.525 -39.9775 108.518
lradius 69.7584
lwrist 55.5937
lhand -35.698 35.0151
lfingers 7.12502
lthumb -8.81837 784.811
rfemur -428.27 -32.2424 354.153
rtibia 100.501
rfoot 36.2995 7.38387
rtoes -5.15561
lfemur -74.3557 -3.16726 -25.4724
ltibia 103.847
lfoot 14.4434 5.39324
ltoes -3.10422
371
root 0.377145 2.21469 10.2886 -2048.7 -17.3106 179.662
lowerback 42.5162 5.13081 11.7424
upperback 27.7944 -1.02618 2.15467
thorax 12.1452 -4.37664 -4.44771
lowerneck 14.9121 9.03313 7.77906
upperneck 15.794 11.8747 -6.74795
head 3.29755 5.54052 -3.47625
rclavicle -8.28932e-014 -1.19271e-015
rhumerus -63.1982 -0.88457 -80.4892
rradius 70.7005
rwrist -70.6339
rhand -26.702 -33.1275
rfingers 7.12502
rthumb -0.132269 -63.1072
lclavicle -8.28932e-014 -1.19271e-015
lhumerus -70.7028 -39.7632 108.614
lradius 70.0213
lwrist 55.6124
lhand -35.8267 35.0999
lfingers 7.12502
lthumb -8.94254 784.89
rfemur -428.492 -32.149 354.173
rtibia 100.565
rfoot 36.4076 7.37382
rtoes -5.45556
lfemur -74.1834 -3.08432 -25.6134
ltibia 102.997
lfoot 14.6826 5.32427
ltoes -2.6325
372
root 0.366006 2.21502 10.2756 -2048.5 -17.3143 179.801
lowerback 42.3706 5.10096 11.642
upperback 27.7605 -1.07763 2.15293
thorax 12.1253 -4.39926 -4.38569
lowerneck 14.8933 9.14475 7.51329
upperneck 15.7067 11.9907 -6.72457
head 3.26486 5.58665 -3.42751
rclavicle 1.38155e-014 2.26615e-014
rhumerus -63.2257 -0.794814 -80.4804
rradius 70.8497
rwrist -70.7195
rhand -27.0472 -32.9027
rfingers 7.12502
rthumb -0.465629 -62.882
lclavicle 1.38155e-014 2.26615e-014
lhumerus -70.9079 -39.5381 108.698
lradius 70.294
lwrist 55.6264
lhand -35.975 35.2565
lfingers 7.12502
lthumb -9.08566 785.041
rfemur -428.714 -32.0476 354.209
rtibia 100.638
rfoot 36.4388 7.44019
rtoes -6.08254
lfemur -73.9896 -3.02508 -25.7321
ltibia 102.155
lfoot 14.8608 5.23558
ltoes -2.30542
373
root 0.355486 2.21569 10.2632 -2048.29 -17.3038 179.951
lowerback 42.2386 5.07425 11.5404
upperback 27.7263 -1.12975 2.17035
thorax 12.1023 -4.42762 -4.30161
lowerneck 14.8631 9.27875 7.15244
upperneck 15.6055 12.1219 -6.66614
head 3.2228 5.63634 -3.3533
rclavicle -1.01678e-013 -1.63003e-014
rhumerus -63.2462 -0.685103 -80.4644
rradius 70.9901
rwrist -70.7392
rhand -27.4406 -32.7651
rfingers 7.12502
rthumb -0.845586 -62.7432
lclavicle -1.01678e-013 -1.63003e-014
lhumerus -71.1236 -39.3241 108.816
lradius 70.6052
lwrist 55.6389
lhand -36.0853 35.3467
lfingers 7.12502
lthumb -9.19209 785.126
rfemur -428.929 -31.9378 354.259
rtibia 100.708
rfoot 36.4706 7.42269
rtoes -6.63687
lfemur -73.8009 -2.94493 -25.8353
ltibia 101.315
lfoot 15.0207 5.11347
ltoes -2.11845
